PathFileType	4	(X/Y/Z)	Run_300 02
DataRate	CameraRate	NumFrames	NumMarkers	Units	OrigDataRate	OrigDataStartFrame	OrigNumFrames
100	100	6	42	mm	100	361	128
Frame#	Time	RASI			LPSI			RPSI			RTH1			RTH2			RTH3			LTH1			LTH2			LTH3			RTB1			RTB2			RTB3			LTB1			LTB2			LTB3			RCAL			RTOE			RMT5			LCAL			LTOE			LMT5			LACR			RACR			CLAV			C7			RUA1			RUA2			RUA3			RLEL			RMEL			LUA1			LUA2			LUA3			LLEL			LMEL			RFAsuperior			RFAradius			RFAulna			LFAsuperior			LFAradius			LFAulna			LASI		
		X1	Y1	Z1	X2	Y2	Z2	X3	Y3	Z3	X4	Y4	Z4	X5	Y5	Z5	X6	Y6	Z6	X7	Y7	Z7	X8	Y8	Z8	X9	Y9	Z9	X10	Y10	Z10	X11	Y11	Z11	X12	Y12	Z12	X13	Y13	Z13	X14	Y14	Z14	X15	Y15	Z15	X16	Y16	Z16	X17	Y17	Z17	X18	Y18	Z18	X19	Y19	Z19	X20	Y20	Z20	X21	Y21	Z21	X22	Y22	Z22	X23	Y23	Z23	X24	Y24	Z24	X25	Y25	Z25	X26	Y26	Z26	X27	Y27	Z27	X28	Y28	Z28	X29	Y29	Z29	X30	Y30	Z30	X31	Y31	Z31	X32	Y32	Z32	X33	Y33	Z33	X34	Y34	Z34	X35	Y35	Z35	X36	Y36	Z36	X37	Y37	Z37	X38	Y38	Z38	X39	Y39	Z39	X40	Y40	Z40	X41	Y41	Z41	X42	Y42	Z42	

361	  3.610000	979.001265	1066.560411	-210.765319	814.782854	1132.255021	-394.787361	818.834770	1124.620117	-282.730347	882.880524	941.137880	-170.574328	796.621686	809.984673	-191.972489	801.548041	653.574518	-210.198206	937.998713	951.845000	-522.314467	941.890407	791.796392	-484.534515	1055.758286	701.908349	-483.532093	759.643058	398.172065	-288.932562	670.392820	389.790631	-220.303583	645.914310	246.741991	-307.118913	1108.957308	491.633307	-428.542504	973.075548	443.810422	-465.125672	975.080867	319.109335	-413.393241	476.847888	188.467865	-301.640649	676.062356	 68.576883	-349.618938	627.699763	 56.993754	-252.359475	801.062063	259.796756	-368.175515	1005.051690	141.684181	-399.825600	930.067920	128.884252	-481.746605	942.626028	1560.571566	-486.456826	1016.995507	1530.921799	-173.058648	1045.070160	1500.488289	-313.766282	918.287019	1571.145690	-320.958451	937.513272	1422.715036	-90.133172	989.970103	1364.640167	-82.653551	946.316251	1280.243795	-30.324140	930.350236	1216.075277	 -1.583885	909.272650	1193.951769	-87.494966	815.550430	1504.713619	-515.434591	812.477966	1428.007789	-556.736859	718.931953	1396.908692	-565.609999	674.357253	1344.165908	-582.413750	669.062004	1324.040182	-494.490163	1029.968958	1191.645535	-40.182355	1145.272781	1210.981241	-178.202805	1157.064086	1157.675562	-135.325030	717.462272	1270.587711	-588.739432	885.951416	1204.807668	-530.817139	849.584254	1150.625431	-561.562803	970.368486	1065.919189	-470.267951	
362	  3.620000	982.085574	1073.030898	-210.221703	816.656699	1139.423958	-393.940858	821.752260	1131.139761	-281.715463	884.017573	947.125338	-171.110422	793.405942	818.671766	-190.385088	791.818414	663.157164	-209.214763	937.469047	959.621487	-523.563159	941.155169	798.947355	-481.939745	1054.228140	708.756327	-480.556654	742.666956	407.940980	-286.058364	652.462356	400.946247	-218.504712	628.900005	256.743171	-304.485598	1116.706290	497.034273	-427.119726	985.277812	437.709366	-462.631823	999.135248	313.294189	-411.119439	461.422799	204.930886	-299.885956	649.625873	 68.849583	-349.171991	600.802174	 60.132806	-252.249660	831.663997	238.102836	-363.010476	1045.460135	139.370730	-399.246702	970.110476	120.066359	-479.369261	943.331626	1567.848262	-486.958800	1019.189983	1537.861601	-175.438225	1045.877147	1507.105945	-315.819465	919.388488	1577.606701	-321.637025	940.936955	1430.588818	-90.973420	993.620044	1372.408749	-84.322120	950.343753	1288.537450	-30.883109	934.976693	1223.917782	 -2.562011	912.175721	1201.798034	-88.094738	815.448036	1514.336653	-515.212975	810.871828	1437.825492	-556.160713	716.332695	1409.188213	-563.241839	670.898013	1356.730467	-579.758752	666.708963	1335.790123	-492.003372	1034.136522	1204.021547	-43.950155	1144.980193	1230.035002	-184.230786	1160.190415	1176.972549	-142.098515	714.064477	1283.515859	-587.123511	883.338316	1217.878956	-531.669794	846.807310	1163.552381	-561.927299	971.981313	1073.130822	-470.326795	
363	  3.630000	984.910992	1078.834908	-209.990808	818.294377	1145.635494	-393.212688	824.416337	1137.012987	-281.007157	885.349101	952.951587	-171.195584	791.349147	826.936959	-188.733151	783.772914	672.477989	-208.542791	936.851184	966.227595	-525.074197	939.024490	804.648445	-479.304346	1051.213627	713.599629	-477.478677	727.591797	417.808949	-283.479261	636.495284	412.255506	-216.771783	613.408804	266.845907	-301.700653	1123.121547	501.078051	-424.946007	997.669983	430.364512	-460.416776	1022.693818	307.744225	-408.610114	447.810208	221.863969	-297.915388	624.087164	 70.148565	-348.786039	575.066915	 64.809914	-251.550712	862.860063	217.497382	-358.994267	1084.782090	138.921137	-396.757906	1010.681585	112.579760	-475.915480	944.137646	1574.287200	-487.500200	1021.348311	1544.045129	-177.658153	1046.766646	1513.009713	-317.686680	920.597325	1583.405096	-322.268874	943.951340	1437.768520	-91.876357	996.766638	1379.503527	-85.734118	953.758987	1296.407415	-31.015192	938.772944	1231.305990	 -3.150605	914.417200	1209.087554	-88.317026	815.554194	1523.086236	-514.790468	809.411721	1446.946699	-555.616439	714.183917	1420.255507	-560.825539	668.107304	1367.853472	-577.056975	664.999032	1346.085260	-489.549647	1037.163856	1215.648586	-47.299548	1143.601022	1247.292218	-189.208035	1162.062351	1194.601048	-147.940963	711.347831	1295.085723	-585.533657	881.474411	1229.623693	-532.636515	844.780400	1175.220551	-562.500917	972.871729	1079.577879	-470.302037	
364	  3.640000	987.469127	1083.844114	-210.120215	819.640979	1150.687264	-392.759335	826.818713	1142.095940	-280.658363	887.035413	958.435992	-170.885058	790.235993	834.668726	-187.635327	777.332633	681.214350	-208.225321	936.337707	971.302308	-526.710419	935.752449	808.727309	-477.089964	1046.950098	716.242586	-474.832476	714.632159	427.379800	-281.482918	622.772013	423.430231	-215.300483	599.291139	276.998504	-299.080158	1128.237255	503.855087	-422.359177	1010.037121	422.260189	-458.589245	1045.349965	302.629444	-405.923817	435.978270	239.167779	-295.489545	599.499194	 72.836088	-348.122103	550.850324	 71.136688	-250.317153	894.098417	198.348834	-356.366559	1122.464641	140.255582	-392.026224	1051.493972	106.394369	-471.193688	944.885549	1579.736957	-488.051597	1023.359028	1549.446285	-179.555457	1047.692641	1518.042486	-319.384413	921.857460	1588.356773	-322.847695	946.500590	1444.159897	-92.753811	999.358781	1385.768336	-86.858015	956.608615	1303.511495	-30.831890	941.831980	1237.961327	 -3.343227	916.068029	1215.603732	-88.190689	815.751092	1530.903443	-514.103215	808.042788	1455.145004	-555.076737	712.419775	1429.748860	-558.586339	665.855396	1377.252985	-574.404783	663.833679	1354.762865	-487.125895	1039.195619	1226.043870	-50.032975	1141.421770	1262.119200	-193.286684	1162.940466	1209.807663	-153.022159	709.154566	1305.011096	-583.974714	880.292687	1239.941476	-533.786881	843.466034	1185.466100	-563.340972	973.000990	1085.043020	-470.358270	
365	  3.650000	989.755320	1087.992736	-210.543495	820.834402	1154.505319	-392.691646	828.950380	1146.310934	-280.603076	889.030316	963.351053	-170.254369	789.749208	841.653626	-187.518564	772.553932	688.970086	-208.127173	935.959438	974.562773	-528.241565	931.919693	811.192065	-475.499856	1041.728316	716.723824	-472.971282	703.983777	436.028354	-280.122748	611.595381	433.969908	-214.140215	586.459015	286.958634	-296.807686	1131.938035	505.537924	-419.814717	1021.940305	413.902235	-457.188081	1066.628500	298.106230	-403.126773	425.752583	256.654492	-292.391651	575.791115	 77.048048	-346.983328	528.032759	 78.797905	-248.931411	924.783845	181.002796	-354.866068	1157.927667	143.225268	-385.444354	1091.733135	101.431266	-465.029169	945.469173	1584.315817	-488.552322	1025.099900	1553.866569	-181.297695	1048.582488	1522.078241	-320.989114	923.084682	1592.372466	-323.443506	948.637241	1449.675788	-93.551269	1001.475784	1391.044553	-87.775062	958.907253	1309.598155	-30.506992	944.231396	1243.757750	 -3.150878	917.169951	1221.203566	-87.687994	815.915061	1537.647977	-513.302321	806.799361	1462.141659	-554.550240	710.970285	1437.463749	-556.657651	664.043807	1384.789908	-571.897873	663.164170	1361.651268	-484.788710	1040.439817	1234.790055	-52.020920	1138.690762	1274.025999	-196.660157	1162.976626	1221.933839	-157.525387	707.402394	1313.118632	-582.506375	879.706769	1248.761591	-535.124328	842.818815	1194.162874	-564.461346	972.876415	1089.296076	-470.717717	
366	  3.660000	991.742872	1091.225359	-211.160107	821.974027	1157.120193	-392.928447	830.783211	1149.603953	-280.741974	891.117706	967.453786	-169.449584	789.765489	847.487790	-188.225952	769.679198	695.238619	-208.108063	935.666565	975.954858	-529.376451	928.164784	812.233585	-474.309881	1035.937724	715.409669	-471.849731	695.684624	443.101689	-279.331403	603.195392	443.370737	-213.150404	574.713143	296.472046	-294.908663	1134.070995	506.205867	-417.601213	1032.904120	405.589186	-456.094419	1086.067914	294.223119	-400.265344	416.610290	274.068908	-288.645362	552.645563	 82.784146	-345.425542	505.971807	 87.446772	-247.727606	954.277731	165.670584	-353.964676	1190.446546	147.648777	-377.808150	1130.248467	 97.743508	-457.468051	945.862779	1588.163613	-489.025335	1026.508045	1557.064486	-183.224149	1049.381806	1525.099846	-322.565921	924.196870	1595.437573	-324.186176	950.433961	1454.146329	-94.337000	1003.198674	1395.205743	-88.634359	960.616971	1314.594503	-30.179067	945.972819	1248.706591	 -2.637939	917.693798	1225.858387	-86.813194	815.967841	1543.090396	-512.636453	805.740958	1467.669481	-554.102119	709.785469	1443.287078	-555.047280	662.616210	1390.388978	-569.593157	662.968902	1366.621275	-482.619562	1041.055045	1241.575475	-53.337506	1135.608916	1282.768994	-199.447975	1162.193735	1230.606803	-161.493446	706.093032	1319.295194	-581.229279	879.647204	1256.021256	-536.596449	842.826326	1201.238404	-565.874886	973.020418	1092.222391	-471.347963	
